<svg xmlns="http://www.w3.org/2000/svg" viewBox="0 0 2496.9 357.81"><defs><style>.cls-1{fill:#fff;}.cls-2{fill:none;}.cls-3{fill:#4db84d;}</style></defs><title>资源 1</title><g id="图层_2" data-name="图层 2"><g id="图层_1-2" data-name="图层 1"><path class="cls-1" d="M585.46,249.62a62.89,62.89,0,0,1-59.78,51.69A40.71,40.71,0,0,1,485,250.57a62.38,62.38,0,0,1,59.3-51.68,40,40,0,0,1,41.21,50.73m19.06-100-4.29,21a54.08,54.08,0,0,0-54.55-27.63A127.2,127.2,0,0,0,425.16,250.1c-10.48,57.4,17.15,107.66,80.75,107.66A79.57,79.57,0,0,0,570,329.17l-3.81,21.44h59.31L662.87,150.3H604.52Zm92.89.24h56l-3.81,21a62.64,62.64,0,0,1,56.21-27.87l-10.95,60.26c-28.11,0-47.64,6.2-54.07,36.92l-20.49,110H660Z"/><path class="cls-2" d="M0,0H2496.9V357.28H0Z"/><path class="cls-1" d="M846,71.22,794.35,350.13h60.26l17.87-96.7h.95L912,350.13H979.9L927.5,237.71l91.7-87.89H948.46l-69.32,72.65h-.95L906.3,71.22Z"/><path class="cls-1" d="M1054.69,227.71a56.2,56.2,0,0,1,52.16-34.3,34.77,34.77,0,0,1,38.59,30.49,32.2,32.2,0,0,1,.23,3.81Zm60.73-84.8a134.56,134.56,0,0,0-124.8,108.14,86,86,0,0,0,86.46,106.23,112.16,112.16,0,0,0,60.26-18.1A151.32,151.32,0,0,0,1187.6,288h-61.22a52,52,0,0,1-40.25,18.58,35.73,35.73,0,0,1-39.62-31.36,36.44,36.44,0,0,1-.16-6.52h150.3a71.33,71.33,0,0,0,4.28-15.72c11.44-62.4-24.29-110-85.51-110"/><path class="cls-2" d="M0,0H2496.9V357.28H0Z"/><path class="cls-1" d="M345.37,71.22,239.62,230.09h-1V71.22H187.45L0,350.13H72.65L177.92,191.26h1V350.13h51.68L335.84,191.26h1V350.13h60.27V71.22Zm1007.76,78.6h-37.87l11-59.31h-52.64l-4.29,23.82a41.44,41.44,0,0,1-43.11,36.44l-9,44.3h29.77l-28.82,155.06h59.79l28.82-155.06H1345Z"/><path class="cls-3" d="M2337.32,71.46h59.78L2379,170.78a62.65,62.65,0,0,1,57.4-27.87,61.25,61.25,0,0,1,50.74,22.39c12.86,19.53,11.43,37.4,4.76,73.12l-20.48,112h-59.79l20-109.09c1.91-9.53,7.62-42.16-23.82-42.16a42.16,42.16,0,0,0-41.68,39.07l-20.72,111.94h-58.83Zm-252,78.36H2048.4l10.24-59.31H2006l-5.24,22.87a41.44,41.44,0,0,1-43.11,36.44l-8.1,45.25h29.54l-28.58,155.06h59.78l28.58-155.06h38.35ZM1796.88,301.31a62.9,62.9,0,0,0,61-51.69,40,40,0,0,0-41.21-50.73,62.38,62.38,0,0,0-59.3,51.68,40.75,40.75,0,0,0,40.73,50.74m101,47.63h-60.5l3.81-21.43a79.56,79.56,0,0,1-65,29.77c-63.59,0-91.46-50.26-80.74-107.66a127.18,127.18,0,0,1,120.28-106.71A54.05,54.05,0,0,1,1870.47,171l4.29-21h59.31ZM1784,0,1667.3,71.46h33.11L1594.66,230.09V71.46H1542L1436.26,230.09V71.46h-61.21V350.13h52.16L1533,190.55V350.13h51.69L1772.58,71.46h29.54Zm496.86,274.15a135.78,135.78,0,0,1-120.52,83.13,86.21,86.21,0,0,1-88.13-108.14,132.43,132.43,0,0,1,126.47-106.23,84.8,84.8,0,0,1,90.1,79.14c.11,1.72.17,3.45.18,5.18h-60.74a35.49,35.49,0,0,0-38.35-28.34A58.33,58.33,0,0,0,2133,249.62a38.82,38.82,0,0,0,38.34,51.21,57.18,57.18,0,0,0,47.64-26.68h61.93Z"/></g></g></svg>