<?xml version="1.0" encoding="utf-8"?>
<!-- Generator: Adobe Illustrator 15.1.0, SVG Export Plug-In . SVG Version: 6.00 Build 0)  -->
<!DOCTYPE svg PUBLIC "-//W3C//DTD SVG 1.1//EN" "http://www.w3.org/Graphics/SVG/1.1/DTD/svg11.dtd">
<svg version="1.1" id="Layer_1" xmlns="http://www.w3.org/2000/svg" xmlns:xlink="http://www.w3.org/1999/xlink" x="0px" y="0px"
	 width="186px" height="45px" viewBox="0 0 186 45" enable-background="new 0 0 186 45" xml:space="preserve">
<g id="Logo-Color">
	<g id="Logo_x5F_Horz_3_">
		<g id="Lam_Group_-_AG_Old_Face_4_">
			<path fill="#FFFFFF" d="M82.546,29.107h-9.265V15.892h2.964v10.783h6.301V29.107z"/>
			<path fill="#FFFFFF" d="M96.443,29.107h-3.047l-0.639-1.871h-5.621l-0.617,1.871h-2.945l4.673-13.216h3.418L96.443,29.107z
				 M91.996,25.009l-2.12-6.216l-2.039,6.216H91.996z"/>
			<path fill="#FFFFFF" d="M111.039,29.107h-2.717l0.123-10.203l-2.738,10.203h-2.615l-2.717-10.203v10.203h-2.654V15.892h4.404
				l2.285,9.268l2.305-9.268h4.324V29.107z"/>
			<path fill="#FFFFFF" d="M131.668,29.107h-2.49v-0.822c-0.248,0.205-0.557,0.484-1.152,0.73c-0.741,0.299-1.75,0.485-2.738,0.485
				c-4.057,0-6.794-3.033-6.794-6.89c0-3.389,2.141-7.114,7.269-7.114c0.68,0,3.026,0.02,4.797,1.948
				c0.721,0.805,0.987,1.497,1.192,2.002l-2.84,0.992c-0.206-0.486-0.33-0.805-0.535-1.123c-0.558-0.842-1.565-1.423-2.862-1.423
				c-2.718,0-3.974,2.359-3.974,4.661c0,2.49,1.338,4.512,4.077,4.512c1.935,0,3.191-1.181,3.438-2.808h-3.541V21.92h6.155
				L131.668,29.107L131.668,29.107z"/>
			<path fill="#FFFFFF" d="M145.277,29.107h-3.396l-2.965-5.035h-2.121v5.035h-2.986V15.892h5.107c1.297,0,3.006-0.019,4.322,0.918
				c0.947,0.674,1.627,1.909,1.627,3.295c0,1.01-0.352,1.928-1.049,2.657c-0.68,0.694-1.318,0.88-1.834,1.03L145.277,29.107z
				 M136.795,21.938h1.605c1.051-0.019,1.668-0.037,2.203-0.243c0.596-0.243,1.192-0.768,1.192-1.778
				c0-0.432-0.146-1.049-0.844-1.461c-0.617-0.374-1.42-0.393-2.142-0.411h-2.018v3.893H136.795z"/>
			<path fill="#FFFFFF" d="M158.234,27.498c-1.094,1.145-2.822,1.984-5.047,1.984c-4.281,0-6.896-3.164-6.896-6.964
				c0-4.081,3.065-7.021,6.998-7.021c3.687,0,6.877,2.64,6.815,7.077C160.064,24.671,159.303,26.395,158.234,27.498z M156.07,19.224
				c-0.637-0.768-1.627-1.254-2.799-1.254c-2.676,0-3.912,2.377-3.912,4.605c0,1.086,0.35,2.34,1.07,3.164
				c0.616,0.692,1.604,1.196,2.778,1.196c2.183,0,3.912-1.629,3.871-4.585C157.059,20.928,156.646,19.897,156.07,19.224z"/>
			<path fill="#FFFFFF" d="M161.676,15.892h3.006v8.274c0.021,0.674,0.021,1.441,0.619,2.079c0.719,0.769,1.873,0.769,2.223,0.769
				c0.289,0,1.275,0,1.978-0.639c0.699-0.636,0.742-1.441,0.742-2.114v-8.369h2.983v8.855c-0.061,1.216-0.145,2.489-1.563,3.573
				c-0.97,0.75-2.451,1.182-4.222,1.182c-2.1,0-3.377-0.562-4.116-1.105c-1.525-1.084-1.586-2.414-1.647-3.611v-8.893H161.676z"/>
			<path fill="#FFFFFF" d="M178.031,29.107h-2.943V15.873h5.477c1.3,0.019,2.884,0.019,4.14,1.161
				c0.821,0.748,1.297,1.928,1.297,3.07c0,1.272-0.576,2.526-1.481,3.332c-1.338,1.18-2.842,1.217-4.242,1.234h-2.244v4.438H178.031
				z M178.031,22.406h1.545c0.371,0,0.742-0.019,1.111-0.037c0.576-0.057,1.729-0.131,2.266-1.142
				c0.164-0.3,0.227-0.656,0.227-0.993c0-0.468-0.104-0.786-0.207-1.011c-0.557-1.16-1.873-1.179-2.881-1.197h-2.061V22.406z"/>
		</g>
		<g id="LG_4_">
			<g id="G_-Bembo_10_">
				<path id="G_-Bembo_11_" fill="#FFFFFF" d="M62.008,25.991c-2.98,0.067-3.994,1.175-3.994,4.354v10.299
					C53.962,42.927,48.165,45,43.324,45c-14.241,0-21.108-9.747-21.108-23.019C22.216,9.332,30.715,0,42.705,0
					c5.797,0,10.3,2.419,12.214,2.419c0.844,0,1.294-0.276,1.688-0.898h1.407v12.65h-2.252C54.244,7.12,49.966,2.972,44.112,2.972
					c-7.993,0-13.509,7.742-13.509,18.94c0,11.337,5.798,19.771,13.622,19.771c2.139,0,4.502-0.691,6.022-1.799v-9.539
					c0-3.455-1.182-4.217-6.923-4.354v-2.627h18.685L62.008,25.991L62.008,25.991z"/>
			</g>
			<g id="L_-_Minion_10_">
				<path id="L_-_Minion_11_" fill="#FFFFFF" d="M18.277,34.039c0,5.038,0.333,6.557,2.078,7.178
					c1.412,0.483,3.655,0.553,6.23,0.553c3.24,0,7.062-0.414,8.973-2.14c1.329-1.312,2.658-3.521,3.988-6.833l2.991,0.482
					c-0.499,2.691-2.16,9.73-2.908,11.596H0v-2.209c6.812-0.414,7.477-0.896,7.477-8.352V10.573c0-7.454-0.665-7.938-6.979-8.352
					V0.013h24.924v2.209c-6.48,0.414-7.146,0.897-7.146,8.352L18.277,34.039L18.277,34.039z"/>
			</g>
		</g>
	</g>
</g>
<g id="Logo-white" display="none">
	<g id="Logo_x5F_Horz_1_" display="inline">
		<g id="Lam_Group_-_AG_Old_Face_1_">
			<path fill="#FFFFFF" d="M82.546,29.107h-9.265V15.892h2.964v10.783h6.301V29.107z"/>
			<path fill="#FFFFFF" d="M96.443,29.107h-3.047l-0.639-1.871h-5.621l-0.617,1.871h-2.945l4.673-13.216h3.418L96.443,29.107z
				 M91.996,25.009l-2.12-6.216l-2.039,6.216H91.996z"/>
			<path fill="#FFFFFF" d="M111.039,29.107h-2.717l0.123-10.203l-2.738,10.203h-2.615l-2.717-10.203v10.203h-2.654V15.892h4.404
				l2.285,9.268l2.305-9.268h4.324V29.107z"/>
			<path fill="#FFFFFF" d="M131.668,29.107h-2.49v-0.822c-0.248,0.205-0.557,0.484-1.152,0.73c-0.741,0.299-1.75,0.485-2.738,0.485
				c-4.057,0-6.794-3.033-6.794-6.89c0-3.389,2.141-7.114,7.269-7.114c0.68,0,3.026,0.02,4.797,1.948
				c0.721,0.805,0.987,1.497,1.192,2.002l-2.84,0.992c-0.206-0.486-0.33-0.805-0.535-1.123c-0.558-0.842-1.565-1.423-2.862-1.423
				c-2.718,0-3.974,2.359-3.974,4.661c0,2.49,1.338,4.512,4.077,4.512c1.935,0,3.191-1.181,3.438-2.808h-3.541V21.92h6.155
				L131.668,29.107L131.668,29.107z"/>
			<path fill="#FFFFFF" d="M145.277,29.107h-3.396l-2.965-5.035h-2.121v5.035h-2.986V15.892h5.107c1.297,0,3.006-0.019,4.322,0.918
				c0.947,0.674,1.627,1.909,1.627,3.295c0,1.01-0.352,1.928-1.049,2.657c-0.68,0.694-1.318,0.88-1.834,1.03L145.277,29.107z
				 M136.795,21.938h1.605c1.051-0.019,1.668-0.037,2.203-0.243c0.596-0.243,1.192-0.768,1.192-1.778
				c0-0.432-0.146-1.049-0.844-1.461c-0.617-0.374-1.42-0.393-2.142-0.411h-2.018v3.893H136.795z"/>
			<path fill="#FFFFFF" d="M158.234,27.498c-1.094,1.145-2.822,1.984-5.047,1.984c-4.281,0-6.896-3.164-6.896-6.964
				c0-4.081,3.065-7.021,6.998-7.021c3.687,0,6.877,2.64,6.815,7.077C160.064,24.671,159.303,26.395,158.234,27.498z M156.07,19.224
				c-0.637-0.768-1.627-1.254-2.799-1.254c-2.676,0-3.912,2.377-3.912,4.605c0,1.086,0.35,2.34,1.07,3.164
				c0.616,0.692,1.604,1.196,2.778,1.196c2.183,0,3.912-1.629,3.871-4.585C157.059,20.928,156.646,19.897,156.07,19.224z"/>
			<path fill="#FFFFFF" d="M161.676,15.892h3.006v8.274c0.021,0.674,0.021,1.441,0.619,2.079c0.719,0.769,1.873,0.769,2.223,0.769
				c0.289,0,1.275,0,1.978-0.639c0.699-0.636,0.742-1.441,0.742-2.114v-8.369h2.983v8.855c-0.061,1.216-0.145,2.489-1.563,3.573
				c-0.97,0.75-2.451,1.182-4.222,1.182c-2.1,0-3.377-0.562-4.116-1.105c-1.525-1.084-1.586-2.414-1.647-3.611v-8.893H161.676z"/>
			<path fill="#FFFFFF" d="M178.031,29.107h-2.943V15.873h5.477c1.3,0.019,2.884,0.019,4.14,1.161
				c0.821,0.748,1.297,1.928,1.297,3.07c0,1.272-0.576,2.526-1.481,3.332c-1.338,1.18-2.842,1.217-4.242,1.234h-2.244v4.438H178.031
				z M178.031,22.406h1.545c0.371,0,0.742-0.019,1.111-0.037c0.576-0.057,1.729-0.131,2.266-1.142
				c0.164-0.3,0.227-0.656,0.227-0.993c0-0.468-0.104-0.786-0.207-1.011c-0.557-1.16-1.873-1.179-2.881-1.197h-2.061V22.406z"/>
		</g>
		<g id="LG_1_">
			<g id="G_-Bembo_1_">
				<path id="G_-Bembo_2_" fill="#FFFFFF" d="M62.008,25.991c-2.98,0.067-3.994,1.175-3.994,4.354v10.299
					C53.962,42.927,48.165,45,43.324,45c-14.241,0-21.108-9.747-21.108-23.019C22.216,9.332,30.715,0,42.705,0
					c5.797,0,10.3,2.419,12.214,2.419c0.844,0,1.294-0.276,1.688-0.898h1.407v12.65h-2.252C54.244,7.12,49.966,2.972,44.112,2.972
					c-7.993,0-13.509,7.742-13.509,18.94c0,11.337,5.798,19.771,13.622,19.771c2.139,0,4.502-0.691,6.022-1.799v-9.539
					c0-3.455-1.182-4.217-6.923-4.354v-2.627h18.685L62.008,25.991L62.008,25.991z"/>
			</g>
			<g id="L_-_Minion_1_">
				<path id="L_-_Minion_2_" fill="#FFFFFF" d="M18.277,34.039c0,5.038,0.333,6.557,2.078,7.178c1.412,0.483,3.655,0.553,6.23,0.553
					c3.24,0,7.062-0.414,8.973-2.14c1.329-1.312,2.658-3.521,3.988-6.833l2.991,0.482c-0.499,2.691-2.16,9.73-2.908,11.596H0v-2.209
					c6.812-0.414,7.477-0.896,7.477-8.352V10.573c0-7.454-0.665-7.938-6.979-8.352V0.013h24.924v2.209
					c-6.48,0.414-7.146,0.897-7.146,8.352L18.277,34.039L18.277,34.039z"/>
			</g>
		</g>
	</g>
</g>
</svg>
