<svg xmlns="http://www.w3.org/2000/svg" width="130.6" height="33.348" viewBox="0 0 130.6 33.348"><defs><style>.a{fill:#d7c87b;}</style></defs><g transform="translate(-302 -36)"><g transform="translate(302 36)"><g transform="translate(39.777 12.19)"><path class="a" d="M130.456,440.744h1.373a2.259,2.259,0,0,0,.943-.149,1.329,1.329,0,0,0,.613-.835q1.054-3.356,2.123-6.788a.115.115,0,0,1,.11-.081h2.29a.052.052,0,0,1,.049.067q-1.806,5.621-1.98,6.154a8.611,8.611,0,0,1-.827,1.988c-1.132,1.6-2.9,1.367-4.693,1.367s-3.562.238-4.7-1.365a8.612,8.612,0,0,1-.827-1.988q-.173-.533-1.983-6.153a.052.052,0,0,1,.049-.067h2.29a.115.115,0,0,1,.11.081q1.071,3.432,2.126,6.787a1.329,1.329,0,0,0,.613.835,2.251,2.251,0,0,0,.943.148Z" transform="translate(-122.95 -432.89)"/><path class="a" d="M385.445,440.255c.208.425.841.489,1.276.485q1.276-.014,8.7-.01a.065.065,0,0,1,.065.065v1.626a.055.055,0,0,1-.055.055h-8.679c-1.621,0-3.587-.327-3.637-2.4q-.037-1.514-.013-7.109a.066.066,0,0,1,.065-.065h2.115a.078.078,0,0,1,.078.078q-.007,3.706,0,6.718A1.4,1.4,0,0,0,385.445,440.255Z" transform="translate(-351.787 -432.899)"/><path class="a" d="M502.477,433.08q3.006,0,4.486.01a2.608,2.608,0,0,1,2.633,1.475,6.1,6.1,0,0,1,.137,1.643q0,.829,0,1.658t0,1.657a6.1,6.1,0,0,1-.137,1.643,2.61,2.61,0,0,1-2.634,1.475q-1.479.01-4.485.01t-4.486-.01a2.608,2.608,0,0,1-2.633-1.475,6.1,6.1,0,0,1-.137-1.643q0-.829,0-1.658t0-1.657a6.1,6.1,0,0,1,.137-1.643,2.608,2.608,0,0,1,2.633-1.475Q499.471,433.08,502.477,433.08Zm-4.461,7.827h8.9a.537.537,0,0,0,.537-.537v-4.781a.837.837,0,0,0-.859-.812h-8.26a.837.837,0,0,0-.859.812v4.781A.537.537,0,0,0,498.017,440.907Z" transform="translate(-450.422 -433.057)"/><path class="a" d="M631.326,438.638c-.614,0-1.562-.042-1.605.7a2.212,2.212,0,0,0,.047.9,1.418,1.418,0,0,0,1.129.607q2.019.007,10.58.006a.068.068,0,0,1,.076.077v1.588a.053.053,0,0,1-.053.053q-7.037.007-10.574,0c-1.43,0-3.249-.608-3.431-2.259a3.961,3.961,0,0,1,.169-1.841,3.188,3.188,0,0,1,3.022-1.557q1.329-.013,7.622-.029a1.151,1.151,0,0,0,.744-.238c.323-.258.271-.629.25-1.094-.026-.615-.817-.853-1.336-.853q-8.785,0-10.283,0a.051.051,0,0,1-.058-.058V433.05a.048.048,0,0,1,.048-.048q9.972-.01,10.533-.012a4.131,4.131,0,0,1,2.274.633,2.5,2.5,0,0,1,1.088,2.5c-.112,2.052-1.916,2.5-3.627,2.508Q637.384,438.638,631.326,438.638Z" transform="translate(-566.75 -432.978)"/><path class="a" d="M763.44,436.714q-.189-.652-.448-1.321c-.259-.673-.729-.768-1.438-.771q-2.018-.01-2.6,0c-.74.006-1.321.028-1.594.8q-.243.688-2.272,7.055a.054.054,0,0,1-.05.037h-2.306a.042.042,0,0,1-.04-.055q1.386-4.327,2.006-6.3a7.124,7.124,0,0,1,.841-1.934,3.181,3.181,0,0,1,2.638-1.294q.54-.016,3.848-.006a3.307,3.307,0,0,1,3.04,1.616,6.543,6.543,0,0,1,.523,1.3q1.081,3.4,2.142,6.639a.026.026,0,0,1-.025.035h-2.325a.084.084,0,0,1-.087-.064l-1.207-3.781a.08.08,0,0,0-.076-.055H757.3a.022.022,0,0,1-.021-.028l.5-1.73a.082.082,0,0,1,.078-.059h5.52Q763.463,436.792,763.44,436.714Z" transform="translate(-676.912 -432.916)"/><path class="a" d="M258.421,438.6q-.023,1.185.02,2.013a.3.3,0,0,0,.176.247,1.333,1.333,0,0,0,.684.14q1.126-.02,10.83-.022a.049.049,0,0,1,.048.049v1.632a.063.063,0,0,1-.063.063q-7.238,0-11.023,0c-1.481,0-2.894-.517-2.949-2.235q-.022-.633-.011-4.906c0-1.891,1.45-2.411,3.049-2.411q9.349,0,10.93-.006a.065.065,0,0,1,.066.065v1.6a.046.046,0,0,1-.046.046q-5.214,0-10.431,0c-.742,0-1.309,0-1.289.878q.007.288,0,.963a.046.046,0,0,0,.047.046h11.651a.058.058,0,0,1,.065.066v1.638a.062.062,0,0,1-.07.07H258.491A.062.062,0,0,0,258.421,438.6Z" transform="translate(-240.103 -433.127)"/></g><g transform="translate(0 0)"><path class="a" d="M0,0H7.046L20.437,19.79,33.828,0h7.046L20.437,31.548Z" transform="translate(0 1.8)"/><g transform="translate(14.252)"><g transform="translate(6.536)"><path class="a" d="M5951.409-3123.175l5.857,7.006-5.857-3.193Z" transform="translate(-5951.374 3123.175)"/><path class="a" d="M5951.7-3069.366l5.844,2.7s-2.95,1.226-4.4-.136A3.86,3.86,0,0,1,5951.7-3069.366Z" transform="translate(-5951.664 3074.341)"/><path class="a" d="M5951.02-3048.45s.52,1.677,3.833,2.417l-3.66,6.414Z" transform="translate(-5951.02 3055.233)"/></g><g transform="translate(0 0.052)"><path class="a" d="M5957.266-3123.175l-5.857,7.006,5.857-3.193Z" transform="translate(-5951.409 3123.175)"/><path class="a" d="M5957.542-3069.366l-5.844,2.7s2.95,1.226,4.4-.136A3.857,3.857,0,0,0,5957.542-3069.366Z" transform="translate(-5951.686 3074.341)"/><path class="a" d="M5954.853-3048.45s-.52,1.677-3.833,2.417l3.66,6.414Z" transform="translate(-5948.961 3055.233)"/></g></g></g></g></g></svg>